<?xml version="1.0" encoding="UTF-8"?>
<!--Generator: Apple Native CoreSVG 123-->
<!DOCTYPE svg
PUBLIC "-//W3C//DTD SVG 1.1//EN"
       "http://www.w3.org/Graphics/SVG/1.1/DTD/svg11.dtd">
<svg version="1.1" xmlns="http://www.w3.org/2000/svg" xmlns:xlink="http://www.w3.org/1999/xlink" width="3300" height="2200">
 <!--glyph: "uni1006F6.medium", point size: 100.000000, font version: "Version 15.0d7e11", template writer version: "5"-->
 <g id="Notes">
  <rect height="2200" id="artboard" style="fill:white;opacity:1" width="3300" x="0" y="0"/>
  <line id="" style="fill:none;stroke:black;opacity:1;stroke-width:0.5;" x1="263" x2="3036" y1="292" y2="292"/>
  <text style="stroke:none;fill:black;font-family:-apple-system,&quot;SF Pro Display&quot;,&quot;SF Pro Text&quot;,Helvetica,sans-serif;font-weight:bold;" transform="matrix(1 0 0 1 263 322)">Weight/Scale Variations</text>
  <text style="stroke:none;fill:black;font-family:-apple-system,&quot;SF Pro Display&quot;,&quot;SF Pro Text&quot;,Helvetica,sans-serif;text-anchor:middle;" transform="matrix(1 0 0 1 559.711 322)">Ultralight</text>
  <text style="stroke:none;fill:black;font-family:-apple-system,&quot;SF Pro Display&quot;,&quot;SF Pro Text&quot;,Helvetica,sans-serif;text-anchor:middle;" transform="matrix(1 0 0 1 856.422 322)">Thin</text>
  <text style="stroke:none;fill:black;font-family:-apple-system,&quot;SF Pro Display&quot;,&quot;SF Pro Text&quot;,Helvetica,sans-serif;text-anchor:middle;" transform="matrix(1 0 0 1 1153.13 322)">Light</text>
  <text style="stroke:none;fill:black;font-family:-apple-system,&quot;SF Pro Display&quot;,&quot;SF Pro Text&quot;,Helvetica,sans-serif;text-anchor:middle;" transform="matrix(1 0 0 1 1449.84 322)">Regular</text>
  <text style="stroke:none;fill:black;font-family:-apple-system,&quot;SF Pro Display&quot;,&quot;SF Pro Text&quot;,Helvetica,sans-serif;text-anchor:middle;" transform="matrix(1 0 0 1 1746.56 322)">Medium</text>
  <text style="stroke:none;fill:black;font-family:-apple-system,&quot;SF Pro Display&quot;,&quot;SF Pro Text&quot;,Helvetica,sans-serif;text-anchor:middle;" transform="matrix(1 0 0 1 2043.27 322)">Semibold</text>
  <text style="stroke:none;fill:black;font-family:-apple-system,&quot;SF Pro Display&quot;,&quot;SF Pro Text&quot;,Helvetica,sans-serif;text-anchor:middle;" transform="matrix(1 0 0 1 2339.98 322)">Bold</text>
  <text style="stroke:none;fill:black;font-family:-apple-system,&quot;SF Pro Display&quot;,&quot;SF Pro Text&quot;,Helvetica,sans-serif;text-anchor:middle;" transform="matrix(1 0 0 1 2636.69 322)">Heavy</text>
  <text style="stroke:none;fill:black;font-family:-apple-system,&quot;SF Pro Display&quot;,&quot;SF Pro Text&quot;,Helvetica,sans-serif;text-anchor:middle;" transform="matrix(1 0 0 1 2933.4 322)">Black</text>
  <line id="" style="fill:none;stroke:black;opacity:1;stroke-width:0.5;" x1="263" x2="3036" y1="1903" y2="1903"/>
  <g id="" transform="matrix(1 0 0 1 263 1933)">
   <path d="M 9.24805 0.830078 C 13.5547 0.830078 17.1387 -2.74414 17.1387 -7.05078 C 17.1387 -11.3574 13.5449 -14.9316 9.23828 -14.9316 C 4.94141 -14.9316 1.36719 -11.3574 1.36719 -7.05078 C 1.36719 -2.74414 4.95117 0.830078 9.24805 0.830078 Z M 9.24805 -0.654297 C 5.70312 -0.654297 2.87109 -3.49609 2.87109 -7.05078 C 2.87109 -10.6055 5.69336 -13.4473 9.23828 -13.4473 C 12.793 -13.4473 15.6348 -10.6055 15.6445 -7.05078 C 15.6543 -3.49609 12.8027 -0.654297 9.24805 -0.654297 Z M 9.22852 -3.42773 C 9.69727 -3.42773 9.9707 -3.74023 9.9707 -4.25781 L 9.9707 -6.31836 L 12.1973 -6.31836 C 12.6953 -6.31836 13.0371 -6.57227 13.0371 -7.04102 C 13.0371 -7.51953 12.7148 -7.7832 12.1973 -7.7832 L 9.9707 -7.7832 L 9.9707 -10.0098 C 9.9707 -10.5273 9.69727 -10.8496 9.22852 -10.8496 C 8.75977 -10.8496 8.50586 -10.5078 8.50586 -10.0098 L 8.50586 -7.7832 L 6.29883 -7.7832 C 5.78125 -7.7832 5.44922 -7.51953 5.44922 -7.04102 C 5.44922 -6.57227 5.80078 -6.31836 6.29883 -6.31836 L 8.50586 -6.31836 L 8.50586 -4.25781 C 8.50586 -3.75977 8.75977 -3.42773 9.22852 -3.42773 Z"/>
  </g>
  <g id="" transform="matrix(1 0 0 1 281.506 1933)">
   <path d="M 11.709 2.91016 C 17.1582 2.91016 21.6699 -1.60156 21.6699 -7.05078 C 21.6699 -12.4902 17.1484 -17.0117 11.6992 -17.0117 C 6.25977 -17.0117 1.74805 -12.4902 1.74805 -7.05078 C 1.74805 -1.60156 6.26953 2.91016 11.709 2.91016 Z M 11.709 1.25 C 7.09961 1.25 3.41797 -2.44141 3.41797 -7.05078 C 3.41797 -11.6504 7.08984 -15.3516 11.6992 -15.3516 C 16.3086 -15.3516 20 -11.6504 20.0098 -7.05078 C 20.0195 -2.44141 16.3184 1.25 11.709 1.25 Z M 11.6895 -2.41211 C 12.207 -2.41211 12.5195 -2.77344 12.5195 -3.33984 L 12.5195 -6.23047 L 15.5762 -6.23047 C 16.123 -6.23047 16.5039 -6.51367 16.5039 -7.03125 C 16.5039 -7.55859 16.1426 -7.86133 15.5762 -7.86133 L 12.5195 -7.86133 L 12.5195 -10.9277 C 12.5195 -11.5039 12.207 -11.8555 11.6895 -11.8555 C 11.1719 -11.8555 10.8789 -11.4844 10.8789 -10.9277 L 10.8789 -7.86133 L 7.83203 -7.86133 C 7.26562 -7.86133 6.89453 -7.55859 6.89453 -7.03125 C 6.89453 -6.51367 7.28516 -6.23047 7.83203 -6.23047 L 10.8789 -6.23047 L 10.8789 -3.33984 C 10.8789 -2.79297 11.1719 -2.41211 11.6895 -2.41211 Z"/>
  </g>
  <g id="" transform="matrix(1 0 0 1 304.924 1933)">
   <path d="M 14.9707 5.67383 C 21.9336 5.67383 27.6953 -0.078125 27.6953 -7.04102 C 27.6953 -14.0039 21.9238 -19.7559 14.9609 -19.7559 C 8.00781 -19.7559 2.25586 -14.0039 2.25586 -7.04102 C 2.25586 -0.078125 8.01758 5.67383 14.9707 5.67383 Z M 14.9707 3.85742 C 8.93555 3.85742 4.08203 -1.00586 4.08203 -7.04102 C 4.08203 -13.0762 8.92578 -17.9395 14.9609 -17.9395 C 21.0059 -17.9395 25.8594 -13.0762 25.8691 -7.04102 C 25.8789 -1.00586 21.0156 3.85742 14.9707 3.85742 Z M 14.9512 -1.06445 C 15.5176 -1.06445 15.8691 -1.45508 15.8691 -2.06055 L 15.8691 -6.13281 L 20.1074 -6.13281 C 20.6934 -6.13281 21.1133 -6.46484 21.1133 -7.02148 C 21.1133 -7.59766 20.7227 -7.93945 20.1074 -7.93945 L 15.8691 -7.93945 L 15.8691 -12.1875 C 15.8691 -12.8027 15.5176 -13.1934 14.9512 -13.1934 C 14.3848 -13.1934 14.0625 -12.7832 14.0625 -12.1875 L 14.0625 -7.93945 L 9.83398 -7.93945 C 9.21875 -7.93945 8.80859 -7.59766 8.80859 -7.02148 C 8.80859 -6.46484 9.23828 -6.13281 9.83398 -6.13281 L 14.0625 -6.13281 L 14.0625 -2.06055 C 14.0625 -1.47461 14.3848 -1.06445 14.9512 -1.06445 Z"/>
  </g>
  <text style="stroke:none;fill:black;font-family:-apple-system,&quot;SF Pro Display&quot;,&quot;SF Pro Text&quot;,Helvetica,sans-serif;font-weight:bold;" transform="matrix(1 0 0 1 263 1953)">Design Variations</text>
  <text style="stroke:none;fill:black;font-family:-apple-system,&quot;SF Pro Display&quot;,&quot;SF Pro Text&quot;,Helvetica,sans-serif;" transform="matrix(1 0 0 1 263 1971)">Symbols are supported in up to nine weights and three scales.</text>
  <text style="stroke:none;fill:black;font-family:-apple-system,&quot;SF Pro Display&quot;,&quot;SF Pro Text&quot;,Helvetica,sans-serif;" transform="matrix(1 0 0 1 263 1989)">For optimal layout with text and other symbols, vertically align</text>
  <text style="stroke:none;fill:black;font-family:-apple-system,&quot;SF Pro Display&quot;,&quot;SF Pro Text&quot;,Helvetica,sans-serif;" transform="matrix(1 0 0 1 263 2007)">symbols with the adjacent text.</text>
  <rect height="14" id="" style="fill:#00AEEF;stroke:none;opacity:0.4;" width="3" x="776" y="1919"/>
  <g id="" transform="matrix(1 0 0 1 779 1933)">
   <path d="M 10.5273 0 L 12.373 0 L 7.17773 -14.0918 L 5.43945 -14.0918 L 0.244141 0 L 2.08984 0 L 3.50586 -4.0332 L 9.11133 -4.0332 Z M 6.2793 -11.9531 L 6.33789 -11.9531 L 8.59375 -5.52734 L 4.02344 -5.52734 Z"/>
  </g>
  <rect height="14" id="" style="fill:#00AEEF;stroke:none;opacity:0.4;" width="3" x="791.617" y="1919"/>
  <text style="stroke:none;fill:black;font-family:-apple-system,&quot;SF Pro Display&quot;,&quot;SF Pro Text&quot;,Helvetica,sans-serif;font-weight:bold;" transform="matrix(1 0 0 1 776 1953)">Margins</text>
  <text style="stroke:none;fill:black;font-family:-apple-system,&quot;SF Pro Display&quot;,&quot;SF Pro Text&quot;,Helvetica,sans-serif;" transform="matrix(1 0 0 1 776 1971)">Leading and trailing margins on the left and right side of each symbol</text>
  <text style="stroke:none;fill:black;font-family:-apple-system,&quot;SF Pro Display&quot;,&quot;SF Pro Text&quot;,Helvetica,sans-serif;" transform="matrix(1 0 0 1 776 1989)">can be adjusted by modifying the width of the blue rectangles.</text>
  <text style="stroke:none;fill:black;font-family:-apple-system,&quot;SF Pro Display&quot;,&quot;SF Pro Text&quot;,Helvetica,sans-serif;" transform="matrix(1 0 0 1 776 2007)">Modifications are automatically applied proportionally to all</text>
  <text style="stroke:none;fill:black;font-family:-apple-system,&quot;SF Pro Display&quot;,&quot;SF Pro Text&quot;,Helvetica,sans-serif;" transform="matrix(1 0 0 1 776 2025)">scales and weights.</text>
  <g id="" transform="matrix(1 0 0 1 1289 1933)">
   <path d="M 2.83203 3.11523 L 4.375 4.6582 C 5.22461 5.48828 6.19141 5.41992 7.06055 4.46289 L 17.2754 -6.66016 C 17.7051 -6.36719 18.0957 -6.37695 18.5645 -6.47461 L 19.6094 -6.68945 L 20.3027 -5.99609 L 20.2539 -5.47852 C 20.1855 -4.95117 20.3516 -4.53125 20.8496 -4.0332 L 21.6602 -3.22266 C 22.168 -2.71484 22.8223 -2.68555 23.3008 -3.16406 L 26.5527 -6.41602 C 27.0312 -6.89453 27.0117 -7.54883 26.5039 -8.05664 L 25.6836 -8.87695 C 25.1855 -9.375 24.7754 -9.55078 24.2383 -9.47266 L 23.7109 -9.41406 L 23.0566 -10.0781 L 23.3398 -11.2207 C 23.4863 -11.7871 23.3398 -12.2559 22.7148 -12.8613 L 20.3027 -15.2539 C 16.7578 -18.7793 12.2266 -18.6719 9.11133 -15.5371 C 8.69141 -15.1074 8.64258 -14.5215 8.91602 -14.0918 C 9.15039 -13.7207 9.62891 -13.4961 10.2734 -13.6621 C 11.7871 -14.043 13.3008 -13.9258 14.7852 -12.9199 L 14.1602 -11.3379 C 13.9258 -10.752 13.9453 -10.2734 14.1797 -9.83398 L 3.01758 0.439453 C 2.08008 1.30859 1.97266 2.25586 2.83203 3.11523 Z M 10.6738 -15.1465 C 13.3398 -17.1387 16.6504 -16.8262 19.0527 -14.4141 L 21.6797 -11.8066 C 21.9141 -11.5723 21.9434 -11.3867 21.8848 -11.0938 L 21.5039 -9.53125 L 23.0762 -7.95898 L 24.043 -8.04688 C 24.3262 -8.07617 24.4141 -8.05664 24.6387 -7.83203 L 25.2637 -7.20703 L 22.5098 -4.46289 L 21.8848 -5.07812 C 21.6602 -5.30273 21.6406 -5.40039 21.6699 -5.68359 L 21.7578 -6.64062 L 20.1953 -8.20312 L 18.5742 -7.89062 C 18.291 -7.83203 18.1445 -7.83203 17.9102 -8.07617 L 15.7324 -10.2539 C 15.5078 -10.4883 15.4785 -10.625 15.6055 -10.9473 L 16.5527 -13.2227 C 14.9512 -14.7559 12.8418 -15.6055 10.8008 -14.9512 C 10.7129 -14.9219 10.6445 -14.9414 10.6152 -14.9805 C 10.5859 -15.0293 10.5859 -15.0781 10.6738 -15.1465 Z M 4.10156 2.41211 C 3.61328 1.91406 3.78906 1.61133 4.12109 1.30859 L 15.0781 -8.80859 L 16.3086 -7.57812 L 6.15234 3.34961 C 5.84961 3.68164 5.46875 3.7793 5.06836 3.37891 Z"/>
  </g>
  <text style="stroke:none;fill:black;font-family:-apple-system,&quot;SF Pro Display&quot;,&quot;SF Pro Text&quot;,Helvetica,sans-serif;font-weight:bold;" transform="matrix(1 0 0 1 1289 1953)">Exporting</text>
  <text style="stroke:none;fill:black;font-family:-apple-system,&quot;SF Pro Display&quot;,&quot;SF Pro Text&quot;,Helvetica,sans-serif;" transform="matrix(1 0 0 1 1289 1971)">Symbols should be outlined when exporting to ensure the</text>
  <text style="stroke:none;fill:black;font-family:-apple-system,&quot;SF Pro Display&quot;,&quot;SF Pro Text&quot;,Helvetica,sans-serif;" transform="matrix(1 0 0 1 1289 1989)">design is preserved when submitting to Xcode.</text>
  <text id="template-version" style="stroke:none;fill:black;font-family:-apple-system,&quot;SF Pro Display&quot;,&quot;SF Pro Text&quot;,Helvetica,sans-serif;text-anchor:end;" transform="matrix(1 0 0 1 3036 1933)">Template v.1.0</text>
  <text style="stroke:none;fill:black;font-family:-apple-system,&quot;SF Pro Display&quot;,&quot;SF Pro Text&quot;,Helvetica,sans-serif;text-anchor:end;" transform="matrix(1 0 0 1 3036 1951)">Generated from stop</text>
  <text style="stroke:none;fill:black;font-family:-apple-system,&quot;SF Pro Display&quot;,&quot;SF Pro Text&quot;,Helvetica,sans-serif;text-anchor:end;" transform="matrix(1 0 0 1 3036 1969)">Typeset at 100 points</text>
  <text style="stroke:none;fill:black;font-family:-apple-system,&quot;SF Pro Display&quot;,&quot;SF Pro Text&quot;,Helvetica,sans-serif;" transform="matrix(1 0 0 1 263 726)">Small</text>
  <text style="stroke:none;fill:black;font-family:-apple-system,&quot;SF Pro Display&quot;,&quot;SF Pro Text&quot;,Helvetica,sans-serif;" transform="matrix(1 0 0 1 263 1156)">Medium</text>
  <text style="stroke:none;fill:black;font-family:-apple-system,&quot;SF Pro Display&quot;,&quot;SF Pro Text&quot;,Helvetica,sans-serif;" transform="matrix(1 0 0 1 263 1586)">Large</text>
 </g>
 <g id="Guides">
  <g id="H-reference" style="fill:#27AAE1;stroke:none;" transform="matrix(1 0 0 1 339 696)">
   <path d="M 54.9316 0 L 57.666 0 L 30.5664 -70.459 L 28.0762 -70.459 L 0.976562 0 L 3.66211 0 L 12.9395 -24.4629 L 45.7031 -24.4629 Z M 29.1992 -67.0898 L 29.4434 -67.0898 L 44.8242 -26.709 L 13.8184 -26.709 Z"/>
  </g>
  <line id="Baseline-S" style="fill:none;stroke:#27AAE1;opacity:1;stroke-width:0.577;" x1="263" x2="3036" y1="696" y2="696"/>
  <line id="Capline-S" style="fill:none;stroke:#27AAE1;opacity:1;stroke-width:0.577;" x1="263" x2="3036" y1="625.541" y2="625.541"/>
  <g id="H-reference" style="fill:#27AAE1;stroke:none;" transform="matrix(1 0 0 1 339 1126)">
   <path d="M 54.9316 0 L 57.666 0 L 30.5664 -70.459 L 28.0762 -70.459 L 0.976562 0 L 3.66211 0 L 12.9395 -24.4629 L 45.7031 -24.4629 Z M 29.1992 -67.0898 L 29.4434 -67.0898 L 44.8242 -26.709 L 13.8184 -26.709 Z"/>
  </g>
  <line id="Baseline-M" style="fill:none;stroke:#27AAE1;opacity:1;stroke-width:0.577;" x1="263" x2="3036" y1="1126" y2="1126"/>
  <line id="Capline-M" style="fill:none;stroke:#27AAE1;opacity:1;stroke-width:0.577;" x1="263" x2="3036" y1="1055.54" y2="1055.54"/>
  <g id="H-reference" style="fill:#27AAE1;stroke:none;" transform="matrix(1 0 0 1 339 1556)">
   <path d="M 54.9316 0 L 57.666 0 L 30.5664 -70.459 L 28.0762 -70.459 L 0.976562 0 L 3.66211 0 L 12.9395 -24.4629 L 45.7031 -24.4629 Z M 29.1992 -67.0898 L 29.4434 -67.0898 L 44.8242 -26.709 L 13.8184 -26.709 Z"/>
  </g>
  <line id="Baseline-L" style="fill:none;stroke:#27AAE1;opacity:1;stroke-width:0.577;" x1="263" x2="3036" y1="1556" y2="1556"/>
  <line id="Capline-L" style="fill:none;stroke:#27AAE1;opacity:1;stroke-width:0.577;" x1="263" x2="3036" y1="1485.54" y2="1485.54"/>
  <rect height="119.336" id="left-margin" style="fill:#00AEEF;stroke:none;opacity:0.4;" width="12.4512" x="1397.62" y="1030.79"/>
  <rect height="119.336" id="right-margin" style="fill:#00AEEF;stroke:none;opacity:0.4;" width="12.4512" x="1489.61" y="1030.79"/>
 </g>
 <g id="Symbols">
  <g id="Black-L" transform="matrix(1 0 0 1 2861.35 1556)">
   <path d="M 16.0645 2.83203 C 16.0645 13.8184 23.0469 20.752 34.668 20.752 L 109.424 20.752 C 121.045 20.752 128.027 13.8184 128.027 2.83203 L 128.027 -73.3398 C 128.027 -84.2773 121.045 -91.2109 109.424 -91.2109 L 34.668 -91.2109 C 23.0469 -91.2109 16.0645 -84.2773 16.0645 -73.3398 Z M 36.3281 -4.58984 L 36.3281 -65.8203 C 36.3281 -69.3359 38.3301 -71.3867 41.7969 -71.3867 L 103.174 -71.3867 C 106.641 -71.3867 108.643 -69.3359 108.643 -65.8203 L 108.643 -4.58984 C 108.643 -1.07422 106.641 0.976562 103.174 0.976562 L 41.7969 0.976562 C 38.3301 0.976562 36.3281 -1.07422 36.3281 -4.58984 Z"/>
  </g>
  <g id="Heavy-L" transform="matrix(1 0 0 1 2565.91 1556)">
   <path d="M 16.0645 2.68555 C 16.0645 13.0371 22.5586 19.4824 33.4473 19.4824 L 108.105 19.4824 C 118.994 19.4824 125.488 13.0371 125.488 2.68555 L 125.488 -73.1934 C 125.488 -83.4961 118.994 -89.9414 108.105 -89.9414 L 33.4473 -89.9414 C 22.5586 -89.9414 16.0645 -83.4961 16.0645 -73.1934 Z M 33.5938 -3.4668 L 33.5938 -66.9922 C 33.5938 -70.6055 35.6934 -72.7539 39.3066 -72.7539 L 102.93 -72.7539 C 106.543 -72.7539 108.643 -70.6055 108.643 -66.9922 L 108.643 -3.4668 C 108.643 0.195312 106.543 2.29492 102.93 2.29492 L 39.3066 2.29492 C 35.6934 2.29492 33.5938 0.195312 33.5938 -3.4668 Z"/>
  </g>
  <g id="Bold-L" transform="matrix(1 0 0 1 2270.62 1556)">
   <path d="M 16.0645 2.49023 C 16.0645 12.1094 22.0215 18.0176 32.0801 18.0176 L 106.641 18.0176 C 116.65 18.0176 122.656 12.1094 122.656 2.49023 L 122.656 -72.998 C 122.656 -82.6172 116.65 -88.5254 106.641 -88.5254 L 32.0801 -88.5254 C 22.0215 -88.5254 16.0645 -82.6172 16.0645 -72.998 Z M 30.5176 -2.19727 L 30.5176 -68.3105 C 30.5176 -72.0703 32.7148 -74.3164 36.4746 -74.3164 L 102.686 -74.3164 C 106.445 -74.3164 108.643 -72.0703 108.643 -68.3105 L 108.643 -2.19727 C 108.643 1.5625 106.445 3.80859 102.686 3.80859 L 36.4746 3.80859 C 32.7148 3.80859 30.5176 1.5625 30.5176 -2.19727 Z"/>
  </g>
  <g id="Semibold-L" transform="matrix(1 0 0 1 1974.88 1556)">
   <path d="M 16.0645 2.34375 C 16.0645 11.5234 21.6797 17.041 31.1035 17.041 L 105.615 17.041 C 115.088 17.041 120.703 11.5234 120.703 2.34375 L 120.703 -72.9004 C 120.703 -82.0312 115.088 -87.5488 105.615 -87.5488 L 31.1035 -87.5488 C 21.6797 -87.5488 16.0645 -82.0312 16.0645 -72.9004 Z M 28.418 -1.31836 L 28.418 -69.1895 C 28.418 -73.0469 30.6641 -75.3418 34.5215 -75.3418 L 102.539 -75.3418 C 106.348 -75.3418 108.643 -73.0469 108.643 -69.1895 L 108.643 -1.31836 C 108.643 2.53906 106.348 4.88281 102.539 4.88281 L 34.5215 4.88281 C 30.6641 4.88281 28.418 2.53906 28.418 -1.31836 Z"/>
  </g>
  <g id="Medium-L" transform="matrix(1 0 0 1 1678.93 1556)">
   <path d="M 16.0645 2.29492 C 16.0645 11.0352 21.3867 16.3086 30.3711 16.3086 L 104.883 16.3086 C 113.867 16.3086 119.189 11.0352 119.189 2.29492 L 119.189 -72.8027 C 119.189 -81.5918 113.867 -86.8164 104.883 -86.8164 L 30.3711 -86.8164 C 21.3867 -86.8164 16.0645 -81.5918 16.0645 -72.8027 Z M 26.8066 -0.634766 L 26.8066 -69.873 C 26.8066 -73.8281 29.1016 -76.1719 33.0078 -76.1719 L 102.393 -76.1719 C 106.299 -76.1719 108.643 -73.8281 108.643 -69.873 L 108.643 -0.634766 C 108.643 3.27148 106.299 5.66406 102.393 5.66406 L 33.0078 5.66406 C 29.1016 5.66406 26.8066 3.27148 26.8066 -0.634766 Z"/>
  </g>
  <g id="Regular-L" transform="matrix(1 0 0 1 1383.19 1556)">
   <path d="M 16.0645 2.14844 C 16.0645 10.4492 21.0449 15.332 29.4434 15.332 L 103.857 15.332 C 112.305 15.332 117.236 10.4492 117.236 2.14844 L 117.236 -72.7051 C 117.236 -81.0059 112.305 -85.8887 103.857 -85.8887 L 29.4434 -85.8887 C 21.0449 -85.8887 16.0645 -81.0059 16.0645 -72.7051 Z M 24.707 0.195312 L 24.707 -70.752 C 24.707 -74.8047 27.0996 -77.1973 31.1035 -77.1973 L 102.246 -77.1973 C 106.25 -77.1973 108.594 -74.8047 108.594 -70.752 L 108.594 0.195312 C 108.594 4.24805 106.25 6.68945 102.246 6.68945 L 31.1035 6.68945 C 27.0996 6.68945 24.707 4.24805 24.707 0.195312 Z"/>
  </g>
  <g id="Light-L" transform="matrix(1 0 0 1 1087.46 1556)">
   <path d="M 16.0645 2.09961 C 16.0645 9.81445 20.6543 14.3066 28.418 14.3066 L 102.93 14.3066 C 110.693 14.3066 115.283 9.81445 115.283 2.09961 L 115.283 -72.6562 C 115.283 -80.3223 110.693 -84.8633 102.93 -84.8633 L 28.418 -84.8633 C 20.6543 -84.8633 16.0645 -80.3223 16.0645 -72.6562 Z M 22.7051 0.830078 L 22.7051 -71.3867 C 22.7051 -75.6836 25.1953 -78.2715 29.4922 -78.2715 L 101.807 -78.2715 C 106.104 -78.2715 108.643 -75.6836 108.643 -71.3867 L 108.643 0.830078 C 108.643 5.12695 106.104 7.71484 101.807 7.71484 L 29.4922 7.71484 C 25.1953 7.71484 22.7051 5.12695 22.7051 0.830078 Z"/>
  </g>
  <g id="Thin-L" transform="matrix(1 0 0 1 792.067 1556)">
   <path d="M 16.0645 2.05078 C 16.0645 8.93555 20.1172 12.9883 27.0508 12.9883 L 101.66 12.9883 C 108.545 12.9883 112.646 8.93555 112.646 2.05078 L 112.646 -72.6074 C 112.646 -79.4922 108.545 -83.5449 101.66 -83.5449 L 27.0508 -83.5449 C 20.1172 -83.5449 16.0645 -79.4922 16.0645 -72.6074 Z M 19.9707 1.66016 L 19.9707 -72.2168 C 19.9707 -76.8555 22.7539 -79.6387 27.3926 -79.6387 L 101.27 -79.6387 C 105.957 -79.6387 108.691 -76.8555 108.691 -72.2168 L 108.691 1.66016 C 108.691 6.29883 105.957 9.08203 101.27 9.08203 L 27.3926 9.08203 C 22.7539 9.08203 19.9707 6.29883 19.9707 1.66016 Z"/>
  </g>
  <g id="Ultralight-L" transform="matrix(1 0 0 1 496.039 1556)">
   <path d="M 16.0645 2.05078 C 16.0645 8.49609 19.873 12.3535 26.3184 12.3535 L 100.977 12.3535 C 107.471 12.3535 111.279 8.49609 111.279 2.05078 L 111.279 -72.5586 C 111.279 -79.0527 107.471 -82.8613 100.977 -82.8613 L 26.3184 -82.8613 C 19.873 -82.8613 16.0645 -79.0527 16.0645 -72.5586 Z M 18.6035 2.09961 L 18.6035 -72.6074 C 18.6035 -77.4414 21.4844 -80.3223 26.3184 -80.3223 L 101.025 -80.3223 C 105.859 -80.3223 108.74 -77.4414 108.74 -72.6074 L 108.74 2.09961 C 108.74 6.93359 105.859 9.76562 101.025 9.76562 L 26.3184 9.76562 C 21.4844 9.76562 18.6035 6.93359 18.6035 2.09961 Z"/>
  </g>
  <g id="Black-M" transform="matrix(1 0 0 1 2876.39 1126)">
   <path d="M 12.4512 -5.51758 C 12.4512 3.51562 18.2617 9.32617 27.9785 9.32617 L 86.0352 9.32617 C 95.752 9.32617 101.562 3.51562 101.562 -5.51758 L 101.562 -64.9414 C 101.562 -73.9746 95.752 -79.7852 86.0352 -79.7852 L 27.9785 -79.7852 C 18.2617 -79.7852 12.4512 -73.9746 12.4512 -64.9414 Z M 30.7617 -12.6953 L 30.7617 -57.7148 C 30.7617 -60.4004 32.2754 -61.9629 34.9609 -61.9629 L 80.0293 -61.9629 C 82.7148 -61.9629 84.2285 -60.4004 84.2285 -57.7148 L 84.2285 -12.6953 C 84.2285 -10.0098 82.7148 -8.44727 80.0293 -8.44727 L 34.9609 -8.44727 C 32.2754 -8.44727 30.7617 -10.0098 30.7617 -12.6953 Z"/>
  </g>
  <g id="Heavy-M" transform="matrix(1 0 0 1 2580.81 1126)">
   <path d="M 12.4512 -5.66406 C 12.4512 2.7832 17.8711 8.20312 26.9043 8.20312 L 84.8633 8.20312 C 93.8965 8.20312 99.3164 2.7832 99.3164 -5.66406 L 99.3164 -64.7949 C 99.3164 -73.291 93.8965 -78.6621 84.8633 -78.6621 L 26.9043 -78.6621 C 17.8711 -78.6621 12.4512 -73.291 12.4512 -64.7949 Z M 28.2715 -11.6211 L 28.2715 -58.8379 C 28.2715 -61.5723 29.8828 -63.1836 32.6172 -63.1836 L 79.8828 -63.1836 C 82.6172 -63.1836 84.2285 -61.5723 84.2285 -58.8379 L 84.2285 -11.6211 C 84.2285 -8.83789 82.6172 -7.22656 79.8828 -7.22656 L 32.6172 -7.22656 C 29.8828 -7.22656 28.2715 -8.83789 28.2715 -11.6211 Z"/>
  </g>
  <g id="Bold-M" transform="matrix(1 0 0 1 2285.36 1126)">
   <path d="M 12.4512 -5.85938 C 12.4512 2.00195 17.3828 6.93359 25.6836 6.93359 L 83.5449 6.93359 C 91.8457 6.93359 96.7773 2.00195 96.7773 -5.85938 L 96.7773 -64.5996 C 96.7773 -72.5098 91.8457 -77.4414 83.5449 -77.4414 L 25.6836 -77.4414 C 17.3828 -77.4414 12.4512 -72.5098 12.4512 -64.5996 Z M 25.5371 -10.4004 L 25.5371 -60.0586 C 25.5371 -62.8906 27.1973 -64.5508 29.9805 -64.5508 L 79.7363 -64.5508 C 82.5684 -64.5508 84.1797 -62.8906 84.1797 -60.0586 L 84.1797 -10.4004 C 84.1797 -7.56836 82.5684 -5.9082 79.7363 -5.9082 L 29.9805 -5.9082 C 27.1973 -5.9082 25.5371 -7.56836 25.5371 -10.4004 Z"/>
  </g>
  <g id="Semibold-M" transform="matrix(1 0 0 1 1989.51 1126)">
   <path d="M 12.4512 -6.00586 C 12.4512 1.46484 17.0898 6.05469 24.8535 6.05469 L 82.6172 6.05469 C 90.4297 6.05469 95.0684 1.46484 95.0684 -6.00586 L 95.0684 -64.502 C 95.0684 -71.9727 90.4297 -76.5625 82.6172 -76.5625 L 24.8535 -76.5625 C 17.0898 -76.5625 12.4512 -71.9727 12.4512 -64.502 Z M 23.6328 -9.57031 L 23.6328 -60.8887 C 23.6328 -63.8184 25.293 -65.5273 28.1738 -65.5273 L 79.6387 -65.5273 C 82.5195 -65.5273 84.1797 -63.8184 84.1797 -60.8887 L 84.1797 -9.57031 C 84.1797 -6.68945 82.5195 -4.98047 79.6387 -4.98047 L 28.1738 -4.98047 C 25.293 -4.98047 23.6328 -6.68945 23.6328 -9.57031 Z"/>
  </g>
  <g id="Medium-M" transform="matrix(1 0 0 1 1693.45 1126)">
   <path d="M 12.4512 -6.10352 C 12.4512 1.07422 16.8457 5.37109 24.2188 5.37109 L 81.9336 5.37109 C 89.3555 5.37109 93.75 1.07422 93.75 -6.10352 L 93.75 -64.4043 C 93.75 -71.582 89.3555 -75.8789 81.9336 -75.8789 L 24.2188 -75.8789 C 16.8457 -75.8789 12.4512 -71.582 12.4512 -64.4043 Z M 22.168 -8.93555 L 22.168 -61.5723 C 22.168 -64.502 23.877 -66.2598 26.8066 -66.2598 L 79.541 -66.2598 C 82.4707 -66.2598 84.1797 -64.502 84.1797 -61.5723 L 84.1797 -8.93555 C 84.1797 -6.00586 82.4707 -4.24805 79.541 -4.24805 L 26.8066 -4.24805 C 23.877 -4.24805 22.168 -6.00586 22.168 -8.93555 Z"/>
  </g>
  <g id="Regular-M" transform="matrix(1 0 0 1 1397.62 1126)">
   <path d="M 12.4512 -6.25 C 12.4512 0.537109 16.5527 4.54102 23.3887 4.54102 L 81.0547 4.54102 C 87.9395 4.54102 91.9922 0.537109 91.9922 -6.25 L 91.9922 -64.2578 C 91.9922 -71.0449 87.9395 -75.0488 81.0547 -75.0488 L 23.3887 -75.0488 C 16.5527 -75.0488 12.4512 -71.0449 12.4512 -64.2578 Z M 20.3125 -8.10547 L 20.3125 -62.4023 C 20.3125 -65.3809 22.0703 -67.1875 25 -67.1875 L 79.4434 -67.1875 C 82.4219 -67.1875 84.1309 -65.3809 84.1309 -62.4023 L 84.1309 -8.10547 C 84.1309 -5.12695 82.4219 -3.32031 79.4434 -3.32031 L 25 -3.32031 C 22.0703 -3.32031 20.3125 -5.12695 20.3125 -8.10547 Z"/>
  </g>
  <g id="Light-M" transform="matrix(1 0 0 1 1101.79 1126)">
   <path d="M 12.4512 -6.29883 C 12.4512 -0.0488281 16.1621 3.61328 22.4609 3.61328 L 80.1758 3.61328 C 86.4746 3.61328 90.2344 -0.0488281 90.2344 -6.29883 L 90.2344 -64.2578 C 90.2344 -70.459 86.4746 -74.1699 80.1758 -74.1699 L 22.4609 -74.1699 C 16.1621 -74.1699 12.4512 -70.459 12.4512 -64.2578 Z M 18.5059 -7.56836 L 18.5059 -62.9395 C 18.5059 -66.1621 20.3613 -68.1152 23.584 -68.1152 L 79.1016 -68.1152 C 82.2754 -68.1152 84.1797 -66.1621 84.1797 -62.9395 L 84.1797 -7.56836 C 84.1797 -4.3457 82.2754 -2.39258 79.1016 -2.39258 L 23.584 -2.39258 C 20.3613 -2.39258 18.5059 -4.3457 18.5059 -7.56836 Z"/>
  </g>
  <g id="Thin-M" transform="matrix(1 0 0 1 806.276 1126)">
   <path d="M 12.4512 -6.29883 C 12.4512 -0.830078 15.7227 2.44141 21.2402 2.44141 L 79.0527 2.44141 C 84.5703 2.44141 87.8418 -0.830078 87.8418 -6.29883 L 87.8418 -64.209 C 87.8418 -69.7266 84.5703 -72.9492 79.0527 -72.9492 L 21.2402 -72.9492 C 15.7227 -72.9492 12.4512 -69.7266 12.4512 -64.209 Z M 16.0645 -6.83594 L 16.0645 -63.7207 C 16.0645 -67.2363 18.1641 -69.3359 21.6797 -69.3359 L 78.6133 -69.3359 C 82.1289 -69.3359 84.2285 -67.2363 84.2285 -63.7207 L 84.2285 -6.83594 C 84.2285 -3.27148 82.1289 -1.17188 78.6133 -1.17188 L 21.6797 -1.17188 C 18.1641 -1.17188 16.0645 -3.27148 16.0645 -6.83594 Z"/>
  </g>
  <g id="Ultralight-M" transform="matrix(1 0 0 1 510.175 1126)">
   <path d="M 12.4512 -6.34766 C 12.4512 -1.2207 15.4785 1.85547 20.6055 1.85547 L 78.4668 1.85547 C 83.5938 1.85547 86.6211 -1.2207 86.6211 -6.34766 L 86.6211 -64.1602 C 86.6211 -69.3359 83.5938 -72.3633 78.4668 -72.3633 L 20.6055 -72.3633 C 15.4785 -72.3633 12.4512 -69.3359 12.4512 -64.1602 Z M 14.8438 -6.44531 L 14.8438 -64.0625 C 14.8438 -67.7734 17.041 -69.9707 20.7031 -69.9707 L 78.3691 -69.9707 C 82.0801 -69.9707 84.2285 -67.7734 84.2285 -64.0625 L 84.2285 -6.44531 C 84.2285 -2.73438 82.0801 -0.537109 78.3691 -0.537109 L 20.7031 -0.537109 C 17.041 -0.537109 14.8438 -2.73438 14.8438 -6.44531 Z"/>
  </g>
  <g id="Black-S" transform="matrix(1 0 0 1 2888.8 696)">
   <path d="M 9.76562 -11.9629 C 9.76562 -4.93164 14.3066 -0.390625 21.875 -0.390625 L 67.334 -0.390625 C 74.9023 -0.390625 79.4434 -4.93164 79.4434 -11.9629 L 79.4434 -58.4961 C 79.4434 -65.5273 74.9023 -70.0684 67.334 -70.0684 L 21.875 -70.0684 C 14.3066 -70.0684 9.76562 -65.5273 9.76562 -58.4961 Z M 23.9258 -17.4805 L 23.9258 -52.9297 C 23.9258 -55.0293 25.1465 -56.25 27.2461 -56.25 L 62.6953 -56.25 C 64.7949 -56.25 66.0156 -55.0293 66.0156 -52.9297 L 66.0156 -17.4805 C 66.0156 -15.3809 64.7949 -14.1602 62.6953 -14.1602 L 27.2461 -14.1602 C 25.1465 -14.1602 23.9258 -15.3809 23.9258 -17.4805 Z"/>
  </g>
  <g id="Heavy-S" transform="matrix(1 0 0 1 2592.84 696)">
   <path d="M 9.76562 -12.1094 C 9.76562 -5.41992 14.0137 -1.17188 21.1426 -1.17188 L 66.5527 -1.17188 C 73.6328 -1.17188 77.9297 -5.41992 77.9297 -12.1094 L 77.9297 -58.3984 C 77.9297 -65.0879 73.6328 -69.2871 66.5527 -69.2871 L 21.1426 -69.2871 C 14.0137 -69.2871 9.76562 -65.0879 9.76562 -58.3984 Z M 22.2656 -16.6992 L 22.2656 -53.7109 C 22.2656 -55.8594 23.4863 -57.0801 25.5859 -57.0801 L 62.6465 -57.0801 C 64.7461 -57.0801 66.0156 -55.8594 66.0156 -53.7109 L 66.0156 -16.6992 C 66.0156 -14.5996 64.7461 -13.3301 62.6465 -13.3301 L 25.5859 -13.3301 C 23.4863 -13.3301 22.2656 -14.5996 22.2656 -16.6992 Z"/>
  </g>
  <g id="Bold-S" transform="matrix(1 0 0 1 2296.98 696)">
   <path d="M 9.76562 -12.2559 C 9.76562 -5.9082 13.7207 -2.00195 20.3613 -2.00195 L 65.625 -2.00195 C 72.2656 -2.00195 76.2207 -5.9082 76.2207 -12.2559 L 76.2207 -58.252 C 76.2207 -64.5508 72.2656 -68.457 65.625 -68.457 L 20.3613 -68.457 C 13.7207 -68.457 9.76562 -64.5508 9.76562 -58.252 Z M 20.3613 -15.8691 L 20.3613 -54.5898 C 20.3613 -56.7383 21.6309 -58.0078 23.7793 -58.0078 L 62.5488 -58.0078 C 64.6973 -58.0078 65.9668 -56.7383 65.9668 -54.5898 L 65.9668 -15.8691 C 65.9668 -13.7207 64.6973 -12.4512 62.5488 -12.4512 L 23.7793 -12.4512 C 21.6309 -12.4512 20.3613 -13.7207 20.3613 -15.8691 Z"/>
  </g>
  <g id="Semibold-S" transform="matrix(1 0 0 1 2000.86 696)">
   <path d="M 9.76562 -12.3535 C 9.76562 -6.29883 13.5254 -2.63672 19.7754 -2.63672 L 64.9902 -2.63672 C 71.2891 -2.63672 75.0488 -6.29883 75.0488 -12.3535 L 75.0488 -58.1543 C 75.0488 -64.209 71.2891 -67.8711 64.9902 -67.8711 L 19.7754 -67.8711 C 13.5254 -67.8711 9.76562 -64.209 9.76562 -58.1543 Z M 19.0918 -15.2832 L 19.0918 -55.1758 C 19.0918 -57.373 20.3613 -58.6914 22.5098 -58.6914 L 62.5 -58.6914 C 64.6973 -58.6914 65.9668 -57.373 65.9668 -55.1758 L 65.9668 -15.2832 C 65.9668 -13.0859 64.6973 -11.8164 62.5 -11.8164 L 22.5098 -11.8164 C 20.3613 -11.8164 19.0918 -13.0859 19.0918 -15.2832 Z"/>
  </g>
  <g id="Medium-S" transform="matrix(1 0 0 1 1704.61 696)">
   <path d="M 9.76562 -12.4023 C 9.76562 -6.54297 13.3301 -3.07617 19.3359 -3.07617 L 64.5508 -3.07617 C 70.5566 -3.07617 74.1211 -6.54297 74.1211 -12.4023 L 74.1211 -58.1055 C 74.1211 -63.916 70.5566 -67.4316 64.5508 -67.4316 L 19.3359 -67.4316 C 13.3301 -67.4316 9.76562 -63.916 9.76562 -58.1055 Z M 18.0664 -14.8438 L 18.0664 -55.6641 C 18.0664 -57.8613 19.3848 -59.1797 21.5332 -59.1797 L 62.5 -59.1797 C 64.6484 -59.1797 65.918 -57.8613 65.918 -55.6641 L 65.918 -14.8438 C 65.918 -12.6465 64.6484 -11.3281 62.5 -11.3281 L 21.5332 -11.3281 C 19.3848 -11.3281 18.0664 -12.6465 18.0664 -14.8438 Z"/>
  </g>
  <g id="Regular-S" transform="matrix(1 0 0 1 1408.49 696)">
   <path d="M 9.76562 -12.5 C 9.76562 -6.93359 13.1348 -3.66211 18.7988 -3.66211 L 63.916 -3.66211 C 69.5801 -3.66211 72.9492 -6.93359 72.9492 -12.5 L 72.9492 -58.0078 C 72.9492 -63.5742 69.5801 -66.8457 63.916 -66.8457 L 18.7988 -66.8457 C 13.1348 -66.8457 9.76562 -63.5742 9.76562 -58.0078 Z M 16.7969 -14.2578 L 16.7969 -56.25 C 16.7969 -58.4961 18.1152 -59.8145 20.2637 -59.8145 L 62.4512 -59.8145 C 64.6484 -59.8145 65.918 -58.4961 65.918 -56.25 L 65.918 -14.2578 C 65.918 -12.0117 64.6484 -10.6934 62.4512 -10.6934 L 20.2637 -10.6934 C 18.1152 -10.6934 16.7969 -12.0117 16.7969 -14.2578 Z"/>
  </g>
  <g id="Light-S" transform="matrix(1 0 0 1 1112.56 696)">
   <path d="M 9.76562 -12.5488 C 9.76562 -7.42188 12.8418 -4.44336 17.9688 -4.44336 L 63.1836 -4.44336 C 68.3105 -4.44336 71.3867 -7.42188 71.3867 -12.5488 L 71.3867 -57.959 C 71.3867 -63.0859 68.3105 -66.0645 63.1836 -66.0645 L 17.9688 -66.0645 C 12.8418 -66.0645 9.76562 -63.0859 9.76562 -57.959 Z M 15.1855 -13.7695 L 15.1855 -56.7383 C 15.1855 -59.1797 16.6016 -60.6445 19.043 -60.6445 L 62.1094 -60.6445 C 64.5508 -60.6445 65.9668 -59.1797 65.9668 -56.7383 L 65.9668 -13.7695 C 65.9668 -11.3281 64.5508 -9.86328 62.1094 -9.86328 L 19.043 -9.86328 C 16.6016 -9.86328 15.1855 -11.3281 15.1855 -13.7695 Z"/>
  </g>
  <g id="Thin-S" transform="matrix(1 0 0 1 816.896 696)">
   <path d="M 9.76562 -12.5488 C 9.76562 -8.10547 12.4023 -5.46875 16.8945 -5.46875 L 62.1582 -5.46875 C 66.6504 -5.46875 69.2871 -8.10547 69.2871 -12.5488 L 69.2871 -57.959 C 69.2871 -62.4023 66.6504 -65.0391 62.1582 -65.0391 L 16.8945 -65.0391 C 12.4023 -65.0391 9.76562 -62.4023 9.76562 -57.959 Z M 13.0859 -13.1348 L 13.0859 -57.373 C 13.0859 -60.1074 14.6484 -61.7188 17.3828 -61.7188 L 61.7188 -61.7188 C 64.4043 -61.7188 65.9668 -60.1074 65.9668 -57.373 L 65.9668 -13.1348 C 65.9668 -10.4004 64.4043 -8.78906 61.7188 -8.78906 L 17.3828 -8.78906 C 14.6484 -8.78906 13.0859 -10.4004 13.0859 -13.1348 Z"/>
  </g>
  <g id="Ultralight-S" transform="matrix(1 0 0 1 520.722 696)">
   <path d="M 9.76562 -12.5977 C 9.76562 -8.44727 12.207 -6.00586 16.3574 -6.00586 L 61.6211 -6.00586 C 65.7715 -6.00586 68.2129 -8.44727 68.2129 -12.5977 L 68.2129 -57.9102 C 68.2129 -62.0605 65.7715 -64.502 61.6211 -64.502 L 16.3574 -64.502 C 12.207 -64.502 9.76562 -62.0605 9.76562 -57.9102 Z M 11.9629 -12.793 L 11.9629 -57.7148 C 11.9629 -60.5957 13.6719 -62.2559 16.5039 -62.2559 L 61.4746 -62.2559 C 64.3066 -62.2559 66.0156 -60.5957 66.0156 -57.7148 L 66.0156 -12.793 C 66.0156 -9.91211 64.3066 -8.25195 61.4746 -8.25195 L 16.5039 -8.25195 C 13.6719 -8.25195 11.9629 -9.91211 11.9629 -12.793 Z"/>
  </g>
 </g>
</svg>
